<svg xmlns="http://www.w3.org/2000/svg" xmlns:xlink="http://www.w3.org/1999/xlink" width="126" height="126" viewBox="0 0 126 126">
  <defs>
    <filter id="Elipse_10" x="9.5" y="9.5" width="107" height="107" filterUnits="userSpaceOnUse">
      <feOffset input="SourceAlpha"/>
      <feGaussianBlur stdDeviation="0.5" result="blur"/>
      <feFlood flood-opacity="0.161"/>
      <feComposite operator="in" in2="blur"/>
      <feComposite in="SourceGraphic"/>
    </filter>
    <filter id="Elipse_11" x="0" y="0" width="126" height="126" filterUnits="userSpaceOnUse">
      <feOffset input="SourceAlpha"/>
      <feGaussianBlur stdDeviation="2" result="blur-2"/>
      <feFlood flood-opacity="0.161"/>
      <feComposite operator="in" in2="blur-2"/>
      <feComposite in="SourceGraphic"/>
    </filter>
  </defs>
  <g id="Grupo_1127" data-name="Grupo 1127" transform="translate(19270 -3966)">
    <g transform="matrix(1, 0, 0, 1, -19270, 3966)" filter="url(#Elipse_10)">
      <circle id="Elipse_10-2" data-name="Elipse 10" cx="52" cy="52" r="52" transform="translate(11 11)" fill="#ffffff" opacity="0.57"/>
    </g>
    <circle id="Elipse_12" data-name="Elipse 12" cx="45" cy="45" r="45" transform="translate(-19252 3984)" fill="#ffffff" opacity="1.0"/>
    <path id="Polígono_2" data-name="Polígono 2" d="M11.259,3.08a2,2,0,0,1,3.482,0l9.572,16.935A2,2,0,0,1,22.572,23H3.428a2,2,0,0,1-1.741-2.984Z" transform="translate(-19195 4016) rotate(90)" fill="#4b4b8b"/>
    <g transform="matrix(1, 0, 0, 1, -19270, 3966)" filter="url(#Elipse_11)">
      <path id="Elipse_11-2" data-name="Elipse 11" d="M57,0A57,57,0,1,1,0,57,57,57,0,0,1,57,0Z" transform="translate(6 6)" fill="#ffffff" opacity="0.14"/>
    </g>
  </g>
</svg>
